<svg width="1440" height="198" viewBox="0 0 1440 198" fill="none" xmlns="http://www.w3.org/2000/svg">
<path d="M-18.0875 165.294C42.7769 152.72 202.011 121.618 325.222 112.754C448.432 103.891 660.294 100.491 783.927 96.2802C907.561 92.0692 1030.14 76.2266 1152.5 58.0578C1274.86 39.8895 1397.01 19.3951 1458.09 9.14746" stroke="#AFAFAF" stroke-width="4"/>
<path d="M-18.0875 186.294C42.7769 173.72 202.011 142.618 325.222 133.754C448.432 124.891 660.294 121.491 783.927 117.28C907.561 113.069 1030.14 97.2266 1152.5 79.0578C1274.86 60.8895 1397.01 40.3951 1458.09 30.1475" stroke="#AFAFAF" stroke-width="2"/>
<path d="M-18.0875 197.294C42.7769 184.72 202.011 153.618 325.222 144.754C448.432 135.891 660.294 132.491 783.927 128.28C907.561 124.069 1030.14 108.227 1152.5 90.0578C1274.86 71.8895 1397.01 51.3951 1458.09 41.1475" stroke="#AFAFAF"/>
<path d="M1433.91 0.147461L1134.32 48.0302C1054.93 59.4308 872.17 82.4275 776.301 83.2093C656.465 84.1865 388.073 94.9356 329.145 98.8444C270.218 102.753 179.103 113.991 -7.08789 150.147L-7.08788 0.147335L1433.91 0.147461Z" fill="white"/>
</svg>
