<svg width="1440" height="199" viewBox="0 0 1440 199" fill="none" xmlns="http://www.w3.org/2000/svg">
<path d="M1458.09 33.0002C1397.22 45.574 1237.99 76.6765 1114.78 85.5401C991.568 94.4037 779.706 97.8032 656.073 102.014C532.439 106.225 409.863 122.068 287.5 140.237C165.139 158.405 42.9903 178.899 -18.0874 189.147" stroke="#AFAFAF" stroke-width="4"/>
<path d="M1458.09 12.0002C1397.22 24.574 1237.99 55.6765 1114.78 64.5401C991.568 73.4037 779.706 76.8032 656.073 81.0142C532.439 85.2252 409.863 101.068 287.5 119.237C165.139 137.405 42.9903 157.899 -18.0874 168.147" stroke="#AFAFAF" stroke-width="2"/>
<path d="M1458.09 1.00021C1397.22 13.574 1237.99 44.6765 1114.78 53.5401C991.568 62.4037 779.706 65.8032 656.073 70.0142C532.439 74.2252 409.863 90.0678 287.5 108.237C165.139 126.405 42.9903 146.899 -18.0874 157.147" stroke="#AFAFAF"/>
<path d="M6.08789 198.147L305.677 150.264C385.073 138.864 567.83 115.867 663.699 115.085C783.535 114.108 1051.93 103.359 1110.85 99.4499C1169.78 95.5411 1260.9 84.3033 1447.09 48.147V198.147H6.08789Z" fill="white"/>
</svg>
